Bodoni-36-Book-Italic.ufo
<glyph name="ampersand" format="1">
  <advance width="3230"/>
  <unicode hex="0026"/>
  <outline>
    <contour>
      <point x="1060" y="0" type="curve" smooth="yes"/>
      <point x="2084" y="0"/>
      <point x="3146" y="968"/>
      <point x="3158" y="1516" type="curve" smooth="yes"/>
      <point x="3162" y="1586" type="line"/>
      <point x="3138" y="1472"/>
      <point x="3040" y="1372"/>
      <point x="2900" y="1372" type="curve" smooth="yes"/>
      <point x="2736" y="1372"/>
      <point x="2654" y="1504"/>
      <point x="2654" y="1606" type="curve" smooth="yes"/>
      <point x="2654" y="1728"/>
      <point x="2756" y="1840"/>
      <point x="2908" y="1840" type="curve" smooth="yes"/>
      <point x="3104" y="1840"/>
      <point x="3190" y="1688"/>
      <point x="3190" y="1540" type="curve" smooth="yes"/>
      <point x="3190" y="966"/>
      <point x="2104" y="-40"/>
      <point x="978" y="-40" type="curve" smooth="yes"/>
      <point x="392" y="-40"/>
      <point x="82" y="234"/>
      <point x="82" y="656" type="curve" smooth="yes"/>
      <point x="82" y="1812"/>
      <point x="2216" y="1426"/>
      <point x="2216" y="2662" type="curve" smooth="yes"/>
      <point x="2216" y="2834"/>
      <point x="2116" y="3092"/>
      <point x="1912" y="3092" type="curve" smooth="yes"/>
      <point x="1564" y="3092"/>
      <point x="1404" y="2798"/>
      <point x="1404" y="2540" type="curve" smooth="yes"/>
      <point x="1404" y="2396"/>
      <point x="1454" y="2212"/>
      <point x="1564" y="1926" type="curve" smooth="yes"/>
      <point x="2154" y="390" type="line" smooth="yes"/>
      <point x="2212" y="222"/>
      <point x="2278" y="24"/>
      <point x="2442" y="24" type="curve" smooth="yes"/>
      <point x="2614" y="24"/>
      <point x="2768" y="142"/>
      <point x="2842" y="294" type="curve"/>
      <point x="2864" y="286" type="line"/>
      <point x="2786" y="106"/>
      <point x="2576" y="-40"/>
      <point x="2252" y="-40" type="curve" smooth="yes"/>
      <point x="1952" y="-40"/>
      <point x="1790" y="94"/>
      <point x="1684" y="372" type="curve" smooth="yes"/>
      <point x="1082" y="1926" type="line" smooth="yes"/>
      <point x="1012" y="2098"/>
      <point x="974" y="2244"/>
      <point x="974" y="2388" type="curve" smooth="yes"/>
      <point x="974" y="2798"/>
      <point x="1364" y="3112"/>
      <point x="1922" y="3112" type="curve" smooth="yes"/>
      <point x="2278" y="3112"/>
      <point x="2600" y="2970"/>
      <point x="2600" y="2642" type="curve" smooth="yes"/>
      <point x="2600" y="1658"/>
      <point x="532" y="1994"/>
      <point x="532" y="614" type="curve" smooth="yes"/>
      <point x="532" y="442"/>
      <point x="634" y="0"/>
    </contour>
  </outline>
</glyph>
<glyph name="hyphen" format="1">
  <advance width="1474"/>
  <unicode hex="002D"/>
  <outline>
    <contour>
      <point x="340" y="1138" type="line"/>
      <point x="1324" y="1138" type="line"/>
      <point x="1324" y="1114" type="line"/>
      <point x="340" y="1114" type="line"/>
    </contour>
  </outline>
</glyph>
<glyph name="two" format="1">
  <advance width="2252"/>
  <unicode hex="0032"/>
  <outline>
    <contour>
      <point x="406" y="2196" type="curve"/>
      <point x="430" y="2282"/>
      <point x="508" y="2384"/>
      <point x="652" y="2384" type="curve" smooth="yes"/>
      <point x="770" y="2384"/>
      <point x="892" y="2298"/>
      <point x="892" y="2154" type="curve" smooth="yes"/>
      <point x="892" y="1990"/>
      <point x="778" y="1892"/>
      <point x="634" y="1892" type="curve" smooth="yes"/>
      <point x="490" y="1892"/>
      <point x="372" y="1994"/>
      <point x="372" y="2166" type="curve" smooth="yes"/>
      <point x="372" y="2646"/>
      <point x="810" y="3112"/>
      <point x="1372" y="3112" type="curve" smooth="yes"/>
      <point x="1868" y="3112"/>
      <point x="2200" y="2868"/>
      <point x="2200" y="2458" type="curve" smooth="yes"/>
      <point x="2200" y="2048"/>
      <point x="1664" y="1654"/>
      <point x="1422" y="1462" type="curve" smooth="yes"/>
      <point x="58" y="368" type="line"/>
      <point x="1748" y="368" type="line"/>
      <point x="1814" y="676" type="line"/>
      <point x="1840" y="676" type="line"/>
      <point x="1696" y="0" type="line"/>
      <point x="-168" y="0" type="line"/>
      <point x="-110" y="266" type="line"/>
      <point x="1064" y="1212" type="line" smooth="yes"/>
      <point x="1436" y="1516"/>
      <point x="1790" y="1990"/>
      <point x="1790" y="2376" type="curve" smooth="yes"/>
      <point x="1790" y="2802"/>
      <point x="1634" y="3060"/>
      <point x="1274" y="3060" type="curve" smooth="yes"/>
      <point x="820" y="3060"/>
      <point x="414" y="2618"/>
    </contour>
  </outline>
</glyph>
<glyph name="seven" format="1">
  <advance width="2068"/>
  <unicode hex="0037"/>
  <outline>
    <contour>
      <point x="606" y="270" type="curve" smooth="yes"/>
      <point x="606" y="586"/>
      <point x="1064" y="1176"/>
      <point x="1388" y="1630" type="curve" smooth="yes"/>
      <point x="1576" y="1900"/>
      <point x="1908" y="2354"/>
      <point x="2158" y="2682" type="curve"/>
      <point x="562" y="2682" type="line"/>
      <point x="492" y="2376" type="line"/>
      <point x="466" y="2376" type="line"/>
      <point x="614" y="3072" type="line"/>
      <point x="2478" y="3072" type="line"/>
      <point x="2478" y="3072"/>
      <point x="1782" y="2146"/>
      <point x="1418" y="1630" type="curve" smooth="yes"/>
      <point x="1144" y="1244"/>
      <point x="848" y="880"/>
      <point x="848" y="696" type="curve" smooth="yes"/>
      <point x="848" y="488"/>
      <point x="1138" y="528"/>
      <point x="1138" y="238" type="curve" smooth="yes"/>
      <point x="1138" y="86"/>
      <point x="1040" y="-40"/>
      <point x="860" y="-40" type="curve" smooth="yes"/>
      <point x="720" y="-40"/>
      <point x="606" y="70"/>
    </contour>
  </outline>
</glyph>
<glyph name="at" format="1">
  <advance width="4136"/>
  <unicode hex="0040"/>
  <outline>
    <contour>
      <point x="2528" y="1426" type="curve" smooth="yes"/>
      <point x="2528" y="828"/>
      <point x="2188" y="286"/>
      <point x="1778" y="286" type="curve" smooth="yes"/>
      <point x="1454" y="286"/>
      <point x="1164" y="516"/>
      <point x="1164" y="942" type="curve" smooth="yes"/>
      <point x="1164" y="1556"/>
      <point x="1634" y="2166"/>
      <point x="2122" y="2166" type="curve" smooth="yes"/>
      <point x="2454" y="2166"/>
      <point x="2528" y="1762"/>
    </contour>
    <contour>
      <point x="2510" y="1418" type="curve" smooth="yes"/>
      <point x="2510" y="1590"/>
      <point x="2490" y="2130"/>
      <point x="2154" y="2130" type="curve" smooth="yes"/>
      <point x="1850" y="2130"/>
      <point x="1576" y="1426"/>
      <point x="1576" y="918" type="curve" smooth="yes"/>
      <point x="1576" y="644"/>
      <point x="1640" y="324"/>
      <point x="1836" y="324" type="curve" smooth="yes"/>
      <point x="2176" y="324"/>
      <point x="2510" y="860"/>
    </contour>
    <contour>
      <point x="2416" y="860" type="curve" smooth="yes"/>
      <point x="2712" y="2130" type="line"/>
      <point x="3080" y="2130" type="line"/>
      <point x="2786" y="860" type="line" smooth="yes"/>
      <point x="2774" y="806"/>
      <point x="2588" y="320"/>
      <point x="2904" y="320" type="curve" smooth="yes"/>
      <point x="3490" y="320"/>
      <point x="3888" y="994"/>
      <point x="3888" y="1642" type="curve" smooth="yes"/>
      <point x="3888" y="2380"/>
      <point x="3416" y="3212"/>
      <point x="2392" y="3212" type="curve" smooth="yes"/>
      <point x="1212" y="3212"/>
      <point x="250" y="2134"/>
      <point x="250" y="864" type="curve" smooth="yes"/>
      <point x="250" y="-406"/>
      <point x="982" y="-852"/>
      <point x="1716" y="-852" type="curve" smooth="yes"/>
      <point x="2384" y="-852"/>
      <point x="2846" y="-648"/>
      <point x="3194" y="-246" type="curve"/>
      <point x="3216" y="-262" type="line"/>
      <point x="2872" y="-664"/>
      <point x="2384" y="-876"/>
      <point x="1716" y="-876" type="curve" smooth="yes"/>
      <point x="966" y="-876"/>
      <point x="226" y="-422"/>
      <point x="226" y="864" type="curve" smooth="yes"/>
      <point x="226" y="2146"/>
      <point x="1196" y="3236"/>
      <point x="2396" y="3236" type="curve" smooth="yes"/>
      <point x="3432" y="3236"/>
      <point x="3912" y="2392"/>
      <point x="3912" y="1642" type="curve" smooth="yes"/>
      <point x="3912" y="986"/>
      <point x="3530" y="278"/>
      <point x="2830" y="278" type="curve" smooth="yes"/>
      <point x="2466" y="278"/>
      <point x="2358" y="606"/>
    </contour>
  </outline>
</glyph>
<glyph name="B" format="1">
  <advance width="2560"/>
  <unicode hex="0042"/>
  <outline>
    <contour>
      <point x="1086" y="0" type="curve" smooth="yes"/>
      <point x="-184" y="0" type="line"/>
      <point x="-184" y="24" type="line"/>
      <point x="1086" y="24" type="line" smooth="yes"/>
      <point x="1582" y="24"/>
      <point x="1904" y="536"/>
      <point x="1904" y="1064" type="curve" smooth="yes"/>
      <point x="1904" y="1428"/>
      <point x="1708" y="1564"/>
      <point x="1396" y="1564" type="curve" smooth="yes"/>
      <point x="880" y="1564" type="line"/>
      <point x="880" y="1586" type="line"/>
      <point x="1438" y="1586" type="line" smooth="yes"/>
      <point x="2016" y="1586"/>
      <point x="2356" y="1394"/>
      <point x="2356" y="984" type="curve" smooth="yes"/>
      <point x="2356" y="370"/>
      <point x="1786" y="0"/>
    </contour>
    <contour>
      <point x="902" y="3072" type="line"/>
      <point x="1290" y="3072" type="line"/>
      <point x="574" y="0" type="line"/>
      <point x="184" y="0" type="line"/>
    </contour>
    <contour>
      <point x="1372" y="1568" type="curve" smooth="yes"/>
      <point x="880" y="1568" type="line"/>
      <point x="880" y="1590" type="line"/>
      <point x="1372" y="1590" type="line" smooth="yes"/>
      <point x="1684" y="1590"/>
      <point x="2170" y="1910"/>
      <point x="2170" y="2520" type="curve" smooth="yes"/>
      <point x="2170" y="2802"/>
      <point x="2032" y="3048"/>
      <point x="1680" y="3048" type="curve" smooth="yes"/>
      <point x="532" y="3048" type="line"/>
      <point x="532" y="3072" type="line"/>
      <point x="1680" y="3072" type="line" smooth="yes"/>
      <point x="2340" y="3072"/>
      <point x="2580" y="2888"/>
      <point x="2580" y="2478" type="curve" smooth="yes"/>
      <point x="2580" y="1986"/>
      <point x="2032" y="1568"/>
    </contour>
  </outline>
</glyph>
<glyph name="C" format="1">
  <advance width="2714"/>
  <unicode hex="0043"/>
  <outline>
    <contour>
      <point x="1270" y="-40" type="curve" smooth="yes"/>
      <point x="644" y="-40"/>
      <point x="226" y="376"/>
      <point x="226" y="1044" type="curve" smooth="yes"/>
      <point x="226" y="2162"/>
      <point x="1054" y="3112"/>
      <point x="2008" y="3112" type="curve" smooth="yes"/>
      <point x="2492" y="3112"/>
      <point x="2860" y="2818"/>
      <point x="2786" y="2232" type="curve"/>
      <point x="2760" y="2232" type="line"/>
      <point x="2834" y="2790"/>
      <point x="2482" y="3080"/>
      <point x="2048" y="3080" type="curve" smooth="yes"/>
      <point x="1172" y="3080"/>
      <point x="676" y="1748"/>
      <point x="676" y="798" type="curve" smooth="yes"/>
      <point x="676" y="380"/>
      <point x="884" y="-8"/>
      <point x="1310" y="-8" type="curve" smooth="yes"/>
      <point x="1858" y="-8"/>
      <point x="2302" y="368"/>
      <point x="2474" y="840" type="curve"/>
      <point x="2498" y="840" type="line"/>
      <point x="2334" y="336"/>
      <point x="1856" y="-40"/>
    </contour>
    <contour>
      <point x="2760" y="2232" type="line"/>
      <point x="2782" y="2352" type="line"/>
      <point x="2786" y="2500"/>
      <point x="2748" y="2684"/>
      <point x="2678" y="2782" type="curve"/>
      <point x="2962" y="3072" type="line"/>
      <point x="2982" y="3072" type="line"/>
      <point x="2786" y="2232" type="line"/>
    </contour>
    <contour>
      <point x="2474" y="840" type="line"/>
      <point x="2498" y="840" type="line"/>
      <point x="2274" y="0" type="line"/>
      <point x="2252" y="0" type="line"/>
      <point x="2130" y="286" type="line"/>
      <point x="2212" y="368"/>
      <point x="2346" y="508"/>
      <point x="2428" y="684" type="curve"/>
    </contour>
  </outline>
</glyph>
<glyph name="F" format="1">
  <advance width="2268"/>
  <unicode hex="0046"/>
  <outline>
    <contour>
      <point x="1082" y="1516" type="curve" smooth="yes"/>
      <point x="856" y="1516" type="line"/>
      <point x="856" y="1540" type="line"/>
      <point x="1082" y="1540" type="line" smooth="yes"/>
      <point x="1434" y="1540"/>
      <point x="1662" y="1664"/>
      <point x="1716" y="1938" type="curve"/>
      <point x="1740" y="1938" type="line"/>
      <point x="1544" y="1098" type="line"/>
      <point x="1520" y="1098" type="line"/>
      <point x="1582" y="1372"/>
      <point x="1438" y="1516"/>
    </contour>
    <contour>
      <point x="-184" y="24" type="line"/>
      <point x="962" y="24" type="line"/>
      <point x="962" y="0" type="line"/>
      <point x="-184" y="0" type="line"/>
    </contour>
    <contour>
      <point x="876" y="3072" type="line"/>
      <point x="1266" y="3072" type="line"/>
      <point x="552" y="0" type="line"/>
      <point x="164" y="0" type="line"/>
    </contour>
    <contour>
      <point x="508" y="3072" type="line"/>
      <point x="2618" y="3072" type="line"/>
      <point x="2420" y="2232" type="line"/>
      <point x="2396" y="2232" type="line"/>
      <point x="2498" y="2670"/>
      <point x="2380" y="3048"/>
      <point x="1900" y="3048" type="curve" smooth="yes"/>
      <point x="508" y="3048" type="line"/>
    </contour>
  </outline>
</glyph>
<glyph name="K" format="1">
  <advance width="2752"/>
  <unicode hex="004B"/>
  <outline>
    <contour>
      <point x="-164" y="24" type="line"/>
      <point x="942" y="24" type="line"/>
      <point x="942" y="0" type="line"/>
      <point x="-164" y="0" type="line"/>
    </contour>
    <contour>
      <point x="512" y="3072" type="line"/>
      <point x="1618" y="3072" type="line"/>
      <point x="1618" y="3048" type="line"/>
      <point x="512" y="3048" type="line"/>
    </contour>
    <contour>
      <point x="880" y="3072" type="line"/>
      <point x="1270" y="3072" type="line"/>
      <point x="574" y="0" type="line"/>
      <point x="184" y="0" type="line"/>
    </contour>
    <contour>
      <point x="590" y="888" type="line"/>
      <point x="548" y="888" type="line"/>
      <point x="2576" y="3068" type="line"/>
      <point x="2618" y="3068" type="line"/>
    </contour>
    <contour>
      <point x="1216" y="24" type="line"/>
      <point x="2486" y="24" type="line"/>
      <point x="2486" y="0" type="line"/>
      <point x="1216" y="0" type="line"/>
    </contour>
    <contour>
      <point x="2998" y="3048" type="line"/>
      <point x="2016" y="3048" type="line"/>
      <point x="2016" y="3072" type="line"/>
      <point x="2998" y="3072" type="line"/>
    </contour>
    <contour>
      <point x="2134" y="0" type="line"/>
      <point x="1704" y="0" type="line"/>
      <point x="1192" y="1564" type="line"/>
      <point x="1486" y="1876" type="line"/>
    </contour>
  </outline>
</glyph>
<glyph name="N" format="1">
  <advance width="2928"/>
  <unicode hex="004E"/>
  <outline>
    <contour>
      <point x="2904" y="3072" type="line"/>
      <point x="2928" y="3072" type="line"/>
      <point x="2220" y="-40" type="line"/>
      <point x="2184" y="-40" type="line"/>
      <point x="922" y="3072" type="line"/>
      <point x="1392" y="3072" type="line"/>
      <point x="2352" y="644" type="line"/>
    </contour>
    <contour>
      <point x="2412" y="3072" type="line"/>
      <point x="3318" y="3072" type="line"/>
      <point x="3318" y="3048" type="line"/>
      <point x="2412" y="3048" type="line"/>
    </contour>
    <contour>
      <point x="-144" y="24" type="line"/>
      <point x="782" y="24" type="line"/>
      <point x="782" y="0" type="line"/>
      <point x="-144" y="0" type="line"/>
    </contour>
    <contour>
      <point x="926" y="3048" type="line"/>
      <point x="512" y="3048" type="line"/>
      <point x="512" y="3072" type="line"/>
      <point x="958" y="3072" type="line"/>
      <point x="266" y="0" type="line"/>
      <point x="246" y="0" type="line"/>
    </contour>
  </outline>
</glyph>
<glyph name="R" format="1">
  <advance width="2928"/>
  <unicode hex="0052"/>
  <outline>
    <contour>
      <point x="2662" y="50" type="line"/>
      <point x="2514" y="-8"/>
      <point x="2442" y="-20"/>
      <point x="2294" y="-20" type="curve" smooth="yes"/>
      <point x="1340" y="-20"/>
      <point x="2360" y="1564"/>
      <point x="1352" y="1564" type="curve" smooth="yes"/>
      <point x="880" y="1564" type="line"/>
      <point x="880" y="1576" type="line"/>
      <point x="1434" y="1576" type="line" smooth="yes"/>
      <point x="2838" y="1576"/>
      <point x="1946" y="24"/>
      <point x="2450" y="24" type="curve" smooth="yes"/>
      <point x="2536" y="24"/>
      <point x="2596" y="50"/>
      <point x="2654" y="74" type="curve"/>
    </contour>
    <contour>
      <point x="962" y="3072" type="line"/>
      <point x="1352" y="3072" type="line"/>
      <point x="634" y="0" type="line"/>
      <point x="246" y="0" type="line"/>
    </contour>
    <contour>
      <point x="-164" y="24" type="line"/>
      <point x="1086" y="24" type="line"/>
      <point x="1086" y="0" type="line"/>
      <point x="-164" y="0" type="line"/>
    </contour>
    <contour>
      <point x="1474" y="1568" type="curve" smooth="yes"/>
      <point x="880" y="1568" type="line"/>
      <point x="880" y="1590" type="line"/>
      <point x="1474" y="1590" type="line" smooth="yes"/>
      <point x="2032" y="1590"/>
      <point x="2314" y="2092"/>
      <point x="2314" y="2498" type="curve" smooth="yes"/>
      <point x="2314" y="2698"/>
      <point x="2278" y="3048"/>
      <point x="1884" y="3048" type="curve" smooth="yes"/>
      <point x="512" y="3048" type="line"/>
      <point x="512" y="3072" type="line"/>
      <point x="1884" y="3072" type="line" smooth="yes"/>
      <point x="2420" y="3072"/>
      <point x="2764" y="2908"/>
      <point x="2764" y="2458" type="curve" smooth="yes"/>
      <point x="2764" y="1884"/>
      <point x="2298" y="1568"/>
    </contour>
  </outline>
</glyph>
<glyph name="S" format="1">
  <advance width="2276"/>
  <unicode hex="0053"/>
  <outline>
    <contour>
      <point x="2224" y="2404" type="line"/>
      <point x="2212" y="2514"/>
      <point x="2172" y="2684"/>
      <point x="2098" y="2810" type="curve"/>
      <point x="2400" y="3112" type="line"/>
      <point x="2420" y="3112" type="line"/>
      <point x="2236" y="2274" type="line"/>
      <point x="2212" y="2274" type="line"/>
    </contour>
    <contour>
      <point x="2236" y="2274" type="curve"/>
      <point x="2212" y="2274" type="line"/>
      <point x="2212" y="2786"/>
      <point x="1962" y="3088"/>
      <point x="1462" y="3088" type="curve" smooth="yes"/>
      <point x="1150" y="3088"/>
      <point x="812" y="2862"/>
      <point x="812" y="2510" type="curve" smooth="yes"/>
      <point x="812" y="1720"/>
      <point x="2060" y="2008"/>
      <point x="2060" y="902" type="curve" smooth="yes"/>
      <point x="2060" y="328"/>
      <point x="1532" y="-62"/>
      <point x="954" y="-62" type="curve" smooth="yes"/>
      <point x="316" y="-62"/>
      <point x="130" y="306"/>
      <point x="114" y="798" type="curve"/>
      <point x="140" y="798" type="line"/>
      <point x="152" y="322"/>
      <point x="340" y="-36"/>
      <point x="946" y="-36" type="curve" smooth="yes"/>
      <point x="1380" y="-36"/>
      <point x="1732" y="238"/>
      <point x="1732" y="644" type="curve" smooth="yes"/>
      <point x="1732" y="1516"/>
      <point x="484" y="1290"/>
      <point x="484" y="2192" type="curve" smooth="yes"/>
      <point x="484" y="2806"/>
      <point x="1082" y="3112"/>
      <point x="1454" y="3112" type="curve" smooth="yes"/>
      <point x="1978" y="3112"/>
      <point x="2236" y="2810"/>
    </contour>
    <contour>
      <point x="-62" y="-40" type="line"/>
      <point x="-82" y="-40" type="line"/>
      <point x="114" y="798" type="line"/>
      <point x="140" y="798" type="line"/>
      <point x="144" y="610" type="line"/>
      <point x="164" y="496"/>
      <point x="206" y="356"/>
      <point x="246" y="282" type="curve"/>
    </contour>
  </outline>
</glyph>
<glyph name="U" format="1">
  <advance width="2800"/>
  <unicode hex="0055"/>
  <outline>
    <contour>
      <point x="2392" y="3072" type="line"/>
      <point x="3190" y="3072" type="line"/>
      <point x="3190" y="3048" type="line"/>
      <point x="2392" y="3048" type="line"/>
    </contour>
    <contour>
      <point x="508" y="3072" type="line"/>
      <point x="1676" y="3072" type="line"/>
      <point x="1676" y="3048" type="line"/>
      <point x="508" y="3048" type="line"/>
    </contour>
    <contour>
      <point x="2810" y="3072" type="line"/>
      <point x="2834" y="3072" type="line"/>
      <point x="2342" y="942" type="line" smooth="yes"/>
      <point x="2194" y="298"/>
      <point x="1914" y="-62"/>
      <point x="1266" y="-62" type="curve" smooth="yes"/>
      <point x="598" y="-62"/>
      <point x="250" y="270"/>
      <point x="406" y="942" type="curve" smooth="yes"/>
      <point x="898" y="3072" type="line"/>
      <point x="1286" y="3072" type="line"/>
      <point x="794" y="984" type="line" smooth="yes"/>
      <point x="676" y="472"/>
      <point x="750" y="-32"/>
      <point x="1298" y="-32" type="curve" smooth="yes"/>
      <point x="1892" y="-32"/>
      <point x="2178" y="324"/>
      <point x="2318" y="942" type="curve" smooth="yes"/>
    </contour>
  </outline>
</glyph>
<glyph name="Z" format="1">
  <advance width="2248"/>
  <unicode hex="005A"/>
  <outline>
    <contour>
      <point x="2024" y="3048" type="line"/>
      <point x="1286" y="3048" type="line" smooth="yes"/>
      <point x="724" y="3048"/>
      <point x="532" y="2814"/>
      <point x="430" y="2376" type="curve"/>
      <point x="406" y="2376" type="line"/>
      <point x="570" y="3072" type="line"/>
      <point x="2514" y="3072" type="line"/>
      <point x="2514" y="3048" type="line"/>
      <point x="286" y="24" type="line"/>
      <point x="1146" y="24" type="line" smooth="yes"/>
      <point x="1708" y="24"/>
      <point x="1902" y="262"/>
      <point x="2020" y="778" type="curve"/>
      <point x="2044" y="778" type="line"/>
      <point x="1864" y="0" type="line"/>
      <point x="-204" y="0" type="line"/>
      <point x="-204" y="24" type="line"/>
    </contour>
  </outline>
</glyph>
<glyph name="f" format="1">
  <advance width="1380"/>
  <unicode hex="0066"/>
  <outline>
    <contour>
      <point x="218" y="1884" type="line"/>
      <point x="1528" y="1884" type="line"/>
      <point x="1528" y="1860" type="line"/>
      <point x="218" y="1860" type="line"/>
    </contour>
    <contour>
      <point x="1990" y="2794" type="curve"/>
      <point x="1970" y="2916"/>
      <point x="1850" y="3088"/>
      <point x="1572" y="3088" type="curve" smooth="yes"/>
      <point x="1286" y="3088"/>
      <point x="1086" y="2712"/>
      <point x="996" y="2212" type="curve" smooth="yes"/>
      <point x="582" y="-50" type="line" smooth="yes"/>
      <point x="488" y="-562"/>
      <point x="142" y="-1064"/>
      <point x="-390" y="-1064" type="curve" smooth="yes"/>
      <point x="-722" y="-1064"/>
      <point x="-852" y="-832"/>
      <point x="-852" y="-660" type="curve" smooth="yes"/>
      <point x="-852" y="-492"/>
      <point x="-740" y="-406"/>
      <point x="-618" y="-406" type="curve" smooth="yes"/>
      <point x="-516" y="-406"/>
      <point x="-390" y="-462"/>
      <point x="-390" y="-626" type="curve" smooth="yes"/>
      <point x="-390" y="-790"/>
      <point x="-516" y="-856"/>
      <point x="-634" y="-856" type="curve" smooth="yes"/>
      <point x="-708" y="-856"/>
      <point x="-786" y="-808"/>
      <point x="-806" y="-746" type="curve"/>
      <point x="-786" y="-868"/>
      <point x="-668" y="-1040"/>
      <point x="-390" y="-1040" type="curve" smooth="yes"/>
      <point x="-104" y="-1040"/>
      <point x="102" y="-664"/>
      <point x="188" y="-164" type="curve" smooth="yes"/>
      <point x="598" y="2098" type="line" smooth="yes"/>
      <point x="688" y="2614"/>
      <point x="1040" y="3112"/>
      <point x="1572" y="3112" type="curve" smooth="yes"/>
      <point x="1904" y="3112"/>
      <point x="2036" y="2880"/>
      <point x="2036" y="2708" type="curve" smooth="yes"/>
      <point x="2036" y="2540"/>
      <point x="1924" y="2454"/>
      <point x="1802" y="2454" type="curve" smooth="yes"/>
      <point x="1700" y="2454"/>
      <point x="1572" y="2510"/>
      <point x="1572" y="2674" type="curve" smooth="yes"/>
      <point x="1572" y="2838"/>
      <point x="1700" y="2904"/>
      <point x="1818" y="2904" type="curve" smooth="yes"/>
      <point x="1892" y="2904"/>
      <point x="1970" y="2852"/>
    </contour>
  </outline>
</glyph>
<glyph name="h" format="1">
  <advance width="2338"/>
  <unicode hex="0068"/>
  <outline>
    <contour>
      <point x="1548" y="1262" type="line" smooth="yes"/>
      <point x="1654" y="1578"/>
      <point x="1654" y="1876"/>
      <point x="1466" y="1876" type="curve" smooth="yes"/>
      <point x="1130" y="1876"/>
      <point x="758" y="1334"/>
      <point x="614" y="708" type="curve"/>
      <point x="594" y="708" type="line"/>
      <point x="738" y="1330"/>
      <point x="1090" y="1926"/>
      <point x="1552" y="1926" type="curve" smooth="yes"/>
      <point x="1950" y="1926"/>
      <point x="2036" y="1634"/>
      <point x="1930" y="1306" type="curve" smooth="yes"/>
      <point x="1556" y="164" type="line" smooth="yes"/>
      <point x="1548" y="140"/>
      <point x="1544" y="110"/>
      <point x="1544" y="90" type="curve" smooth="yes"/>
      <point x="1544" y="44"/>
      <point x="1568" y="12"/>
      <point x="1622" y="12" type="curve" smooth="yes"/>
      <point x="1864" y="12"/>
      <point x="2096" y="304"/>
      <point x="2232" y="672" type="curve"/>
      <point x="2256" y="668" type="line"/>
      <point x="2100" y="258"/>
      <point x="1860" y="-40"/>
      <point x="1528" y="-40" type="curve" smooth="yes"/>
      <point x="1336" y="-40"/>
      <point x="1228" y="62"/>
      <point x="1228" y="238" type="curve" smooth="yes"/>
      <point x="1228" y="300"/>
      <point x="1242" y="348"/>
      <point x="1250" y="376" type="curve" smooth="yes"/>
    </contour>
    <contour>
      <point x="778" y="3048" type="line"/>
      <point x="496" y="3048" type="line"/>
      <point x="496" y="3072" type="line"/>
      <point x="1150" y="3072" type="line"/>
      <point x="454" y="0" type="line"/>
      <point x="86" y="0" type="line"/>
    </contour>
  </outline>
</glyph>
<glyph name="k" format="1">
  <advance width="2264"/>
  <unicode hex="006B"/>
  <outline>
    <contour>
      <point x="2184" y="668" type="line"/>
      <point x="2028" y="258"/>
      <point x="1786" y="-40"/>
      <point x="1454" y="-40" type="curve" smooth="yes"/>
      <point x="1262" y="-40"/>
      <point x="1176" y="54"/>
      <point x="1176" y="258" type="curve" smooth="yes"/>
      <point x="1176" y="278"/>
      <point x="1180" y="324"/>
      <point x="1184" y="348" type="curve" smooth="yes"/>
      <point x="1232" y="574" type="line" smooth="yes"/>
      <point x="1286" y="812"/>
      <point x="1430" y="1164"/>
      <point x="1126" y="1164" type="curve" smooth="yes"/>
      <point x="836" y="1164"/>
      <point x="774" y="918"/>
      <point x="738" y="778" type="curve"/>
      <point x="716" y="778" type="line"/>
      <point x="798" y="1142"/>
      <point x="988" y="1184"/>
      <point x="1156" y="1184" type="curve" smooth="yes"/>
      <point x="1438" y="1184"/>
      <point x="1690" y="1028"/>
      <point x="1568" y="496" type="curve" smooth="yes"/>
      <point x="1478" y="114" type="line" smooth="yes"/>
      <point x="1478" y="106"/>
      <point x="1474" y="86"/>
      <point x="1474" y="78" type="curve" smooth="yes"/>
      <point x="1474" y="32"/>
      <point x="1502" y="12"/>
      <point x="1556" y="12" type="curve" smooth="yes"/>
      <point x="1790" y="12"/>
      <point x="2026" y="308"/>
      <point x="2162" y="676" type="curve"/>
    </contour>
    <contour>
      <point x="672" y="1324" type="curve"/>
      <point x="700" y="1314" type="line"/>
      <point x="712" y="1118"/>
      <point x="818" y="1016"/>
      <point x="974" y="1016" type="curve" smooth="yes"/>
      <point x="1170" y="1016"/>
      <point x="1250" y="1216"/>
      <point x="1356" y="1478" type="curve" smooth="yes"/>
      <point x="1470" y="1756"/>
      <point x="1610" y="1926"/>
      <point x="1814" y="1926" type="curve" smooth="yes"/>
      <point x="1998" y="1926"/>
      <point x="2122" y="1806"/>
      <point x="2122" y="1594" type="curve" smooth="yes"/>
      <point x="2122" y="1410"/>
      <point x="2014" y="1348"/>
      <point x="1912" y="1348" type="curve" smooth="yes"/>
      <point x="1810" y="1348"/>
      <point x="1708" y="1416"/>
      <point x="1708" y="1552" type="curve" smooth="yes"/>
      <point x="1708" y="1666"/>
      <point x="1790" y="1744"/>
      <point x="1904" y="1744" type="curve" smooth="yes"/>
      <point x="2014" y="1744"/>
      <point x="2068" y="1680"/>
      <point x="2084" y="1622" type="curve"/>
      <point x="2080" y="1790"/>
      <point x="1982" y="1900"/>
      <point x="1814" y="1900" type="curve" smooth="yes"/>
      <point x="1618" y="1900"/>
      <point x="1490" y="1740"/>
      <point x="1380" y="1466" type="curve" smooth="yes"/>
      <point x="1270" y="1188"/>
      <point x="1178" y="992"/>
      <point x="974" y="992" type="curve" smooth="yes"/>
      <point x="806" y="992"/>
      <point x="672" y="1112"/>
    </contour>
    <contour>
      <point x="898" y="3048" type="line"/>
      <point x="532" y="3048" type="line"/>
      <point x="532" y="3072" type="line"/>
      <point x="1270" y="3072" type="line"/>
      <point x="558" y="0" type="line"/>
      <point x="188" y="0" type="line"/>
    </contour>
  </outline>
</glyph>
<glyph name="l" format="1">
  <advance width="1268"/>
  <unicode hex="006C"/>
  <outline>
    <contour>
      <point x="1188" y="668" type="line"/>
      <point x="1032" y="258"/>
      <point x="790" y="-40"/>
      <point x="458" y="-40" type="curve" smooth="yes"/>
      <point x="266" y="-40"/>
      <point x="168" y="54"/>
      <point x="168" y="258" type="curve" smooth="yes"/>
      <point x="168" y="278"/>
      <point x="172" y="324"/>
      <point x="176" y="348" type="curve" smooth="yes"/>
      <point x="798" y="3048" type="line"/>
      <point x="418" y="3048" type="line"/>
      <point x="418" y="3072" type="line"/>
      <point x="1168" y="3072" type="line"/>
      <point x="492" y="164" type="line" smooth="yes"/>
      <point x="488" y="140"/>
      <point x="484" y="110"/>
      <point x="484" y="90" type="curve" smooth="yes"/>
      <point x="484" y="44"/>
      <point x="504" y="12"/>
      <point x="558" y="12" type="curve" smooth="yes"/>
      <point x="808" y="12"/>
      <point x="1042" y="332"/>
      <point x="1168" y="676" type="curve"/>
    </contour>
  </outline>
</glyph>
<glyph name="s" format="1">
  <advance width="1608"/>
  <unicode hex="0073"/>
  <outline>
    <contour>
      <point x="1388" y="1582" type="curve"/>
      <point x="1356" y="1758"/>
      <point x="1150" y="1896"/>
      <point x="880" y="1896" type="curve" smooth="yes"/>
      <point x="662" y="1896"/>
      <point x="484" y="1770"/>
      <point x="484" y="1582" type="curve" smooth="yes"/>
      <point x="484" y="1140"/>
      <point x="1364" y="1126"/>
      <point x="1364" y="582" type="curve" smooth="yes"/>
      <point x="1364" y="196"/>
      <point x="996" y="-50"/>
      <point x="598" y="-50" type="curve" smooth="yes"/>
      <point x="192" y="-50"/>
      <point x="-16" y="204"/>
      <point x="-16" y="430" type="curve" smooth="yes"/>
      <point x="-16" y="598"/>
      <point x="116" y="684"/>
      <point x="238" y="684" type="curve" smooth="yes"/>
      <point x="340" y="684"/>
      <point x="472" y="618"/>
      <point x="472" y="454" type="curve" smooth="yes"/>
      <point x="472" y="310"/>
      <point x="356" y="230"/>
      <point x="238" y="230" type="curve" smooth="yes"/>
      <point x="94" y="230"/>
      <point x="36" y="324"/>
      <point x="20" y="394" type="curve"/>
      <point x="32" y="186"/>
      <point x="230" y="-24"/>
      <point x="598" y="-24" type="curve" smooth="yes"/>
      <point x="884" y="-24"/>
      <point x="1064" y="168"/>
      <point x="1064" y="368" type="curve" smooth="yes"/>
      <point x="1064" y="798"/>
      <point x="212" y="742"/>
      <point x="212" y="1340" type="curve" smooth="yes"/>
      <point x="212" y="1746"/>
      <point x="580" y="1922"/>
      <point x="880" y="1922" type="curve" smooth="yes"/>
      <point x="1200" y="1922"/>
      <point x="1426" y="1728"/>
      <point x="1426" y="1536" type="curve" smooth="yes"/>
      <point x="1426" y="1368"/>
      <point x="1322" y="1302"/>
      <point x="1200" y="1302" type="curve" smooth="yes"/>
      <point x="1098" y="1302"/>
      <point x="988" y="1368"/>
      <point x="988" y="1512" type="curve" smooth="yes"/>
      <point x="988" y="1634"/>
      <point x="1094" y="1716"/>
      <point x="1188" y="1716" type="curve" smooth="yes"/>
      <point x="1306" y="1716"/>
      <point x="1368" y="1652"/>
    </contour>
  </outline>
</glyph>
<glyph name="z" format="1">
  <advance width="1584"/>
  <unicode hex="007A"/>
  <outline>
    <contour>
      <point x="94" y="1146" type="line"/>
      <point x="266" y="1884" type="line"/>
      <point x="488" y="1762"/>
      <point x="734" y="1724"/>
      <point x="922" y="1724" type="curve" smooth="yes"/>
      <point x="1118" y="1724"/>
      <point x="1474" y="1744"/>
      <point x="1606" y="1876" type="curve"/>
      <point x="1630" y="1852" type="line"/>
      <point x="1302" y="1574"/>
      <point x="1002" y="1414"/>
      <point x="716" y="1414" type="curve" smooth="yes"/>
      <point x="536" y="1414"/>
      <point x="332" y="1484"/>
      <point x="226" y="1582" type="curve"/>
      <point x="118" y="1146" type="line"/>
    </contour>
    <contour>
      <point x="-156" y="-16" type="line"/>
      <point x="-200" y="-20" type="line"/>
      <point x="1590" y="1844" type="line"/>
      <point x="1630" y="1852" type="line"/>
    </contour>
    <contour>
      <point x="1490" y="630" type="curve"/>
      <point x="1470" y="548"/>
      <point x="1396" y="476"/>
      <point x="1286" y="476" type="curve" smooth="yes"/>
      <point x="1184" y="476"/>
      <point x="1078" y="558"/>
      <point x="1078" y="680" type="curve" smooth="yes"/>
      <point x="1078" y="824"/>
      <point x="1188" y="888"/>
      <point x="1290" y="888" type="curve" smooth="yes"/>
      <point x="1412" y="888"/>
      <point x="1516" y="824"/>
      <point x="1516" y="656" type="curve" smooth="yes"/>
      <point x="1516" y="452"/>
      <point x="1290" y="-40"/>
      <point x="954" y="-40" type="curve" smooth="yes"/>
      <point x="704" y="-40"/>
      <point x="610" y="160"/>
      <point x="340" y="160" type="curve" smooth="yes"/>
      <point x="144" y="160"/>
      <point x="-44" y="92"/>
      <point x="-176" y="-40" type="curve"/>
      <point x="-196" y="-20" type="line"/>
      <point x="104" y="226"/>
      <point x="382" y="390"/>
      <point x="668" y="390" type="curve" smooth="yes"/>
      <point x="890" y="390"/>
      <point x="978" y="212"/>
      <point x="1204" y="212" type="curve" smooth="yes"/>
      <point x="1400" y="212"/>
      <point x="1486" y="524"/>
    </contour>
  </outline>
</glyph>
<glyph name="bar" format="1">
  <advance width="942"/>
  <unicode hex="007C"/>
  <outline>
    <contour>
      <point x="1036" y="3194" type="line"/>
      <point x="1060" y="3194" type="line"/>
      <point x="78" y="-1024" type="line"/>
      <point x="54" y="-1024" type="line"/>
    </contour>
  </outline>
</glyph>
<glyph name="section" format="1">
  <advance width="1940"/>
  <unicode hex="00A7"/>
  <outline>
    <contour>
      <point x="824" y="2596" type="curve" smooth="yes"/>
      <point x="824" y="2162"/>
      <point x="1876" y="2264"/>
      <point x="1876" y="1638" type="curve" smooth="yes"/>
      <point x="1876" y="1302"/>
      <point x="1536" y="1188"/>
      <point x="1314" y="1040" type="curve"/>
      <point x="1294" y="1044" type="line"/>
      <point x="1426" y="1134"/>
      <point x="1556" y="1282"/>
      <point x="1556" y="1446" type="curve" smooth="yes"/>
      <point x="1556" y="1900"/>
      <point x="586" y="1746"/>
      <point x="586" y="2450" type="curve" smooth="yes"/>
      <point x="586" y="2876"/>
      <point x="994" y="3112"/>
      <point x="1384" y="3112" type="curve" smooth="yes"/>
      <point x="1786" y="3112"/>
      <point x="2016" y="2834"/>
      <point x="2016" y="2564" type="curve" smooth="yes"/>
      <point x="2016" y="2314"/>
      <point x="1914" y="2212"/>
      <point x="1770" y="2212" type="curve" smooth="yes"/>
      <point x="1648" y="2212"/>
      <point x="1548" y="2294"/>
      <point x="1548" y="2442" type="curve" smooth="yes"/>
      <point x="1548" y="2574"/>
      <point x="1664" y="2666"/>
      <point x="1782" y="2666" type="curve" smooth="yes"/>
      <point x="1892" y="2666"/>
      <point x="1974" y="2588"/>
      <point x="1990" y="2564" type="curve"/>
      <point x="1990" y="2798"/>
      <point x="1810" y="3084"/>
      <point x="1384" y="3084" type="curve" smooth="yes"/>
      <point x="1084" y="3084"/>
      <point x="824" y="2870"/>
    </contour>
    <contour>
      <point x="1638" y="664" type="curve" smooth="yes"/>
      <point x="1638" y="238"/>
      <point x="1230" y="-40"/>
      <point x="758" y="-40" type="curve" smooth="yes"/>
      <point x="398" y="-40"/>
      <point x="46" y="142"/>
      <point x="46" y="536" type="curve" smooth="yes"/>
      <point x="46" y="704"/>
      <point x="168" y="872"/>
      <point x="332" y="872" type="curve" smooth="yes"/>
      <point x="454" y="872"/>
      <point x="552" y="792"/>
      <point x="552" y="644" type="curve" smooth="yes"/>
      <point x="552" y="512"/>
      <point x="438" y="418"/>
      <point x="286" y="418" type="curve" smooth="yes"/>
      <point x="160" y="418"/>
      <point x="86" y="482"/>
      <point x="70" y="552" type="curve"/>
      <point x="62" y="166"/>
      <point x="390" y="-12"/>
      <point x="758" y="-12" type="curve" smooth="yes"/>
      <point x="1180" y="-12"/>
      <point x="1360" y="304"/>
      <point x="1360" y="496" type="curve" smooth="yes"/>
      <point x="1360" y="972"/>
      <point x="282" y="828"/>
      <point x="282" y="1414" type="curve" smooth="yes"/>
      <point x="282" y="1708"/>
      <point x="606" y="1942"/>
      <point x="786" y="2048" type="curve"/>
      <point x="812" y="2048" type="line"/>
      <point x="762" y="1998"/>
      <point x="672" y="1832"/>
      <point x="672" y="1668" type="curve" smooth="yes"/>
      <point x="672" y="1132"/>
      <point x="1638" y="1410"/>
    </contour>
  </outline>
</glyph>
<glyph name="mu" format="1">
  <advance width="2490"/>
  <unicode hex="00B5"/>
  <outline>
    <contour>
      <point x="62" y="-372" type="line" smooth="yes"/>
      <point x="-24" y="-752"/>
      <point x="38" y="-1036"/>
      <point x="398" y="-1044" type="curve"/>
      <point x="496" y="-1036" type="line"/>
      <point x="386" y="-1008"/>
      <point x="270" y="-934"/>
      <point x="270" y="-770" type="curve" smooth="yes"/>
      <point x="270" y="-622"/>
      <point x="392" y="-512"/>
      <point x="528" y="-512" type="curve" smooth="yes"/>
      <point x="664" y="-512"/>
      <point x="790" y="-622"/>
      <point x="790" y="-778" type="curve" smooth="yes"/>
      <point x="790" y="-938"/>
      <point x="694" y="-1064"/>
      <point x="394" y="-1064" type="curve" smooth="yes"/>
      <point x="26" y="-1064"/>
      <point x="-54" y="-762"/>
      <point x="36" y="-372" type="curve" smooth="yes"/>
      <point x="426" y="1314" type="line"/>
      <point x="450" y="1314" type="line"/>
    </contour>
    <component base="u"/>
  </outline>
</glyph>
<glyph name="cedilla" format="1">
  <advance width="2252"/>
  <unicode hex="00B8"/>
  <outline>
    <contour>
      <point x="970" y="-324" type="line"/>
      <point x="1462" y="168" type="line"/>
      <point x="1496" y="168" type="line"/>
      <point x="1004" y="-324" type="line"/>
    </contour>
    <contour>
      <point x="970" y="-324" type="curve"/>
      <point x="1150" y="-160" type="line"/>
      <point x="1482" y="-160"/>
      <point x="1696" y="-246"/>
      <point x="1696" y="-450" type="curve" smooth="yes"/>
      <point x="1696" y="-696"/>
      <point x="1360" y="-902"/>
      <point x="946" y="-902" type="curve"/>
      <point x="946" y="-876" type="line"/>
      <point x="1188" y="-876"/>
      <point x="1388" y="-744"/>
      <point x="1388" y="-532" type="curve" smooth="yes"/>
      <point x="1388" y="-356"/>
      <point x="1236" y="-324"/>
    </contour>
  </outline>
</glyph>
<glyph name="onequarter" format="1">
  <advance width="2624"/>
  <unicode hex="00BC"/>
  <outline>
    <contour>
      <point x="2584" y="2662" type="line"/>
      <point x="2606" y="2662" type="line"/>
      <point x="-50" y="-410" type="line"/>
      <point x="-70" y="-410" type="line"/>
    </contour>
    <component base="four" xScale="0.6" yScale="0.6" xOffset="984" yOffset="-422"/>
    <component base="one" xScale="0.6" yScale="0.6" xOffset="418" yOffset="1458"/>
  </outline>
</glyph>
<glyph name="AE" format="1">
  <advance width="4096"/>
  <unicode hex="00C6"/>
  <outline>
    <contour>
      <point x="2782" y="3072" type="line"/>
      <point x="4482" y="3072" type="line"/>
      <point x="4284" y="2232" type="line"/>
      <point x="4260" y="2232" type="line"/>
      <point x="4362" y="2670"/>
      <point x="4244" y="3048"/>
      <point x="3764" y="3048" type="curve" smooth="yes"/>
      <point x="2782" y="3048" type="line"/>
    </contour>
    <contour>
      <point x="2982" y="1576" type="curve" smooth="yes"/>
      <point x="2692" y="1576" type="line"/>
      <point x="2692" y="1602" type="line"/>
      <point x="2982" y="1602" type="line" smooth="yes"/>
      <point x="3216" y="1602"/>
      <point x="3452" y="1746"/>
      <point x="3514" y="2020" type="curve"/>
      <point x="3538" y="2020" type="line"/>
      <point x="3338" y="1138" type="line"/>
      <point x="3314" y="1138" type="line"/>
      <point x="3376" y="1412"/>
      <point x="3216" y="1576"/>
    </contour>
    <contour>
      <point x="3810" y="0" type="line"/>
      <point x="1638" y="0" type="line"/>
      <point x="1638" y="24" type="line"/>
      <point x="3052" y="24" type="line" smooth="yes"/>
      <point x="3614" y="24"/>
      <point x="3880" y="402"/>
      <point x="3998" y="922" type="curve"/>
      <point x="4022" y="922" type="line"/>
    </contour>
    <contour>
      <point x="2700" y="3072" type="line"/>
      <point x="3088" y="3072" type="line"/>
      <point x="2376" y="0" type="line"/>
      <point x="1986" y="0" type="line"/>
    </contour>
    <contour>
      <point x="1078" y="1016" type="line"/>
      <point x="2274" y="1016" type="line"/>
      <point x="2274" y="992" type="line"/>
      <point x="1078" y="992" type="line"/>
    </contour>
    <contour>
      <point x="2678" y="3072" type="line"/>
      <point x="2712" y="3072" type="line"/>
      <point x="308" y="0" type="line"/>
      <point x="270" y="0" type="line"/>
    </contour>
    <contour>
      <point x="-102" y="24" type="line"/>
      <point x="798" y="24" type="line"/>
      <point x="798" y="0" type="line"/>
      <point x="-102" y="0" type="line"/>
    </contour>
  </outline>
</glyph>
<glyph name="ae" format="1">
  <advance width="3124"/>
  <unicode hex="00E6"/>
  <outline>
    <contour>
      <point x="1122" y="1040" type="curve" smooth="yes"/>
      <point x="1426" y="1040" type="line"/>
      <point x="1426" y="1016" type="line"/>
      <point x="1122" y="1016" type="line" smooth="yes"/>
      <point x="770" y="1016"/>
      <point x="492" y="736"/>
      <point x="492" y="360" type="curve" smooth="yes"/>
      <point x="492" y="126"/>
      <point x="594" y="-16"/>
      <point x="738" y="-16" type="curve" smooth="yes"/>
      <point x="972" y="-16"/>
      <point x="1212" y="340"/>
      <point x="1302" y="742" type="curve" smooth="yes"/>
      <point x="1418" y="1250" type="line" smooth="yes"/>
      <point x="1476" y="1512"/>
      <point x="1488" y="1888"/>
      <point x="1160" y="1888" type="curve" smooth="yes"/>
      <point x="980" y="1888"/>
      <point x="672" y="1822"/>
      <point x="562" y="1650" type="curve"/>
      <point x="774" y="1748"/>
      <point x="918" y="1640"/>
      <point x="918" y="1508" type="curve" smooth="yes"/>
      <point x="918" y="1344"/>
      <point x="778" y="1274"/>
      <point x="676" y="1274" type="curve" smooth="yes"/>
      <point x="554" y="1274"/>
      <point x="462" y="1352"/>
      <point x="462" y="1500" type="curve" smooth="yes"/>
      <point x="462" y="1754"/>
      <point x="828" y="1916"/>
      <point x="1200" y="1916" type="curve" smooth="yes"/>
      <point x="1732" y="1916"/>
      <point x="1770" y="1582"/>
      <point x="1704" y="1250" type="curve"/>
      <point x="1528" y="742" type="line"/>
      <point x="1434" y="234"/>
      <point x="1150" y="-40"/>
      <point x="696" y="-40" type="curve" smooth="yes"/>
      <point x="372" y="-40"/>
      <point x="74" y="76"/>
      <point x="74" y="380" type="curve" smooth="yes"/>
      <point x="74" y="766"/>
      <point x="458" y="1040"/>
    </contour>
    <contour>
      <point x="2716" y="1524" type="curve" smooth="yes"/>
      <point x="2716" y="1716"/>
      <point x="2672" y="1904"/>
      <point x="2524" y="1904" type="curve" smooth="yes"/>
      <point x="2160" y="1904"/>
      <point x="1716" y="1246"/>
      <point x="1716" y="574" type="curve" smooth="yes"/>
      <point x="1716" y="270"/>
      <point x="1822" y="4"/>
      <point x="2064" y="4" type="curve" smooth="yes"/>
      <point x="2436" y="4"/>
      <point x="2744" y="282"/>
      <point x="2900" y="586" type="curve"/>
      <point x="2924" y="586" type="line"/>
      <point x="2764" y="270"/>
      <point x="2436" y="-40"/>
      <point x="1982" y="-40" type="curve" smooth="yes"/>
      <point x="1650" y="-40"/>
      <point x="1372" y="164"/>
      <point x="1372" y="656" type="curve"/>
      <point x="1454" y="634" type="line"/>
      <point x="1462" y="1412"/>
      <point x="1992" y="1926"/>
      <point x="2524" y="1926" type="curve" smooth="yes"/>
      <point x="2860" y="1926"/>
      <point x="3108" y="1818"/>
      <point x="3108" y="1524" type="curve" smooth="yes"/>
      <point x="3108" y="934"/>
      <point x="2134" y="926"/>
      <point x="1680" y="926" type="curve"/>
      <point x="1680" y="950" type="line"/>
      <point x="2126" y="950"/>
      <point x="2716" y="976"/>
    </contour>
  </outline>
</glyph>
<glyph name="kgreenlandic" format="1">
  <advance width="2260"/>
  <unicode hex="0138"/>
  <outline>
    <contour>
      <point x="2180" y="668" type="line"/>
      <point x="2024" y="258"/>
      <point x="1782" y="-40"/>
      <point x="1450" y="-40" type="curve" smooth="yes"/>
      <point x="1258" y="-40"/>
      <point x="1172" y="54"/>
      <point x="1172" y="258" type="curve" smooth="yes"/>
      <point x="1172" y="278"/>
      <point x="1176" y="324"/>
      <point x="1180" y="348" type="curve" smooth="yes"/>
      <point x="1228" y="574" type="line" smooth="yes"/>
      <point x="1282" y="812"/>
      <point x="1422" y="1164"/>
      <point x="1118" y="1164" type="curve" smooth="yes"/>
      <point x="828" y="1164"/>
      <point x="770" y="918"/>
      <point x="734" y="778" type="curve"/>
      <point x="712" y="778" type="line"/>
      <point x="794" y="1142"/>
      <point x="982" y="1184"/>
      <point x="1150" y="1184" type="curve" smooth="yes"/>
      <point x="1432" y="1184"/>
      <point x="1686" y="1028"/>
      <point x="1564" y="496" type="curve" smooth="yes"/>
      <point x="1474" y="114" type="line" smooth="yes"/>
      <point x="1474" y="106"/>
      <point x="1470" y="86"/>
      <point x="1470" y="78" type="curve" smooth="yes"/>
      <point x="1470" y="32"/>
      <point x="1498" y="12"/>
      <point x="1552" y="12" type="curve" smooth="yes"/>
      <point x="1786" y="12"/>
      <point x="2022" y="308"/>
      <point x="2158" y="676" type="curve"/>
    </contour>
    <contour>
      <point x="668" y="1324" type="curve"/>
      <point x="692" y="1314" type="line"/>
      <point x="704" y="1118"/>
      <point x="814" y="1016"/>
      <point x="970" y="1016" type="curve" smooth="yes"/>
      <point x="1166" y="1016"/>
      <point x="1246" y="1216"/>
      <point x="1352" y="1478" type="curve" smooth="yes"/>
      <point x="1466" y="1756"/>
      <point x="1606" y="1926"/>
      <point x="1810" y="1926" type="curve" smooth="yes"/>
      <point x="1994" y="1926"/>
      <point x="2118" y="1806"/>
      <point x="2118" y="1594" type="curve" smooth="yes"/>
      <point x="2118" y="1410"/>
      <point x="2010" y="1348"/>
      <point x="1908" y="1348" type="curve" smooth="yes"/>
      <point x="1806" y="1348"/>
      <point x="1704" y="1416"/>
      <point x="1704" y="1552" type="curve" smooth="yes"/>
      <point x="1704" y="1666"/>
      <point x="1786" y="1744"/>
      <point x="1900" y="1744" type="curve" smooth="yes"/>
      <point x="2010" y="1744"/>
      <point x="2068" y="1680"/>
      <point x="2084" y="1622" type="curve"/>
      <point x="2080" y="1790"/>
      <point x="1982" y="1900"/>
      <point x="1814" y="1900" type="curve" smooth="yes"/>
      <point x="1618" y="1900"/>
      <point x="1486" y="1740"/>
      <point x="1376" y="1466" type="curve" smooth="yes"/>
      <point x="1266" y="1188"/>
      <point x="1174" y="992"/>
      <point x="970" y="992" type="curve" smooth="yes"/>
      <point x="802" y="992"/>
      <point x="668" y="1112"/>
    </contour>
    <contour>
      <point x="614" y="1860" type="line"/>
      <point x="254" y="1860" type="line"/>
      <point x="254" y="1884" type="line"/>
      <point x="992" y="1884" type="line"/>
      <point x="552" y="0" type="line"/>
      <point x="184" y="0" type="line"/>
    </contour>
  </outline>
</glyph>
<glyph name="ring" format="1">
  <advance width="1310"/>
  <unicode hex="02DA"/>
  <outline>
    <contour>
      <point x="778" y="2786" type="curve" smooth="yes"/>
      <point x="778" y="2994"/>
      <point x="938" y="3154"/>
      <point x="1146" y="3154" type="curve" smooth="yes"/>
      <point x="1354" y="3154"/>
      <point x="1516" y="2994"/>
      <point x="1516" y="2786" type="curve" smooth="yes"/>
      <point x="1516" y="2578"/>
      <point x="1354" y="2416"/>
      <point x="1146" y="2416" type="curve" smooth="yes"/>
      <point x="938" y="2416"/>
      <point x="778" y="2578"/>
    </contour>
    <contour>
      <point x="922" y="2704" type="curve" smooth="yes"/>
      <point x="922" y="2548"/>
      <point x="974" y="2442"/>
      <point x="1126" y="2442" type="curve" smooth="yes"/>
      <point x="1278" y="2442"/>
      <point x="1372" y="2696"/>
      <point x="1372" y="2868" type="curve" smooth="yes"/>
      <point x="1372" y="3024"/>
      <point x="1320" y="3130"/>
      <point x="1168" y="3130" type="curve" smooth="yes"/>
      <point x="1016" y="3130"/>
      <point x="922" y="2876"/>
    </contour>
  </outline>
</glyph>
<glyph name="tilde" format="1">
  <advance width="1834"/>
  <unicode hex="02DC"/>
  <outline>
    <contour>
      <point x="962" y="2740" type="curve" smooth="yes"/>
      <point x="794" y="2740"/>
      <point x="700" y="2670"/>
      <point x="618" y="2458" type="curve"/>
      <point x="594" y="2458" type="line"/>
      <point x="676" y="2806"/>
      <point x="902" y="2978"/>
      <point x="1102" y="2978" type="curve" smooth="yes"/>
      <point x="1388" y="2978"/>
      <point x="1552" y="2654"/>
      <point x="1774" y="2654" type="curve" smooth="yes"/>
      <point x="1942" y="2654"/>
      <point x="2036" y="2724"/>
      <point x="2118" y="2936" type="curve"/>
      <point x="2142" y="2936" type="line"/>
      <point x="2060" y="2546"/>
      <point x="1876" y="2416"/>
      <point x="1676" y="2416" type="curve" smooth="yes"/>
      <point x="1360" y="2416"/>
      <point x="1212" y="2740"/>
    </contour>
  </outline>
</glyph>
<glyph name="pi" format="1">
  <advance width="2378"/>
  <unicode hex="03C0"/>
  <outline>
    <contour>
      <point x="304" y="-40" type="curve" smooth="yes"/>
      <point x="136" y="-40"/>
      <point x="62" y="54"/>
      <point x="62" y="156" type="curve" smooth="yes"/>
      <point x="62" y="434"/>
      <point x="534" y="392"/>
      <point x="738" y="1142" type="curve" smooth="yes"/>
      <point x="930" y="1844" type="line"/>
      <point x="1160" y="1844" type="line"/>
      <point x="934" y="996" type="line" smooth="yes"/>
      <point x="774" y="390"/>
      <point x="582" y="-40"/>
    </contour>
    <contour>
      <point x="2154" y="422" type="line"/>
      <point x="2060" y="136"/>
      <point x="1888" y="-40"/>
      <point x="1630" y="-40" type="curve" smooth="yes"/>
      <point x="1478" y="-40"/>
      <point x="1290" y="74"/>
      <point x="1356" y="340" type="curve" smooth="yes"/>
      <point x="1704" y="1720" type="line"/>
      <point x="2072" y="1720" type="line"/>
      <point x="1720" y="390" type="line" smooth="yes"/>
      <point x="1680" y="238"/>
      <point x="1746" y="200"/>
      <point x="1844" y="200" type="curve" smooth="yes"/>
      <point x="1984" y="200"/>
      <point x="2060" y="294"/>
      <point x="2138" y="434" type="curve"/>
    </contour>
    <contour>
      <point x="2442" y="1884" type="line"/>
      <point x="2318" y="1516" type="line"/>
      <point x="376" y="1516" type="line"/>
      <point x="304" y="1208" type="line"/>
      <point x="278" y="1208" type="line"/>
      <point x="438" y="1884" type="line"/>
    </contour>
  </outline>
</glyph>
<glyph name="uniFB01" format="1">
  <advance width="2428"/>
  <unicode hex="FB01"/>
  <outline>
    <contour>
      <point x="2348" y="668" type="line"/>
      <point x="2192" y="258"/>
      <point x="1950" y="-40"/>
      <point x="1618" y="-40" type="curve" smooth="yes"/>
      <point x="1426" y="-40"/>
      <point x="1328" y="54"/>
      <point x="1328" y="258" type="curve" smooth="yes"/>
      <point x="1328" y="278"/>
      <point x="1332" y="324"/>
      <point x="1336" y="348" type="curve" smooth="yes"/>
      <point x="1676" y="1860" type="line"/>
      <point x="212" y="1860" type="line"/>
      <point x="212" y="1884" type="line"/>
      <point x="2052" y="1884" type="line"/>
      <point x="1650" y="164" type="line" smooth="yes"/>
      <point x="1646" y="140"/>
      <point x="1642" y="110"/>
      <point x="1642" y="90" type="curve" smooth="yes"/>
      <point x="1642" y="44"/>
      <point x="1662" y="12"/>
      <point x="1716" y="12" type="curve" smooth="yes"/>
      <point x="1958" y="12"/>
      <point x="2190" y="308"/>
      <point x="2326" y="676" type="curve"/>
    </contour>
    <contour>
      <point x="2150" y="2794" type="curve"/>
      <point x="2130" y="2916"/>
      <point x="2010" y="3088"/>
      <point x="1650" y="3088" type="curve" smooth="yes"/>
      <point x="1282" y="3088"/>
      <point x="1082" y="2712"/>
      <point x="992" y="2212" type="curve" smooth="yes"/>
      <point x="578" y="-50" type="line" smooth="yes"/>
      <point x="484" y="-562"/>
      <point x="138" y="-1064"/>
      <point x="-394" y="-1064" type="curve" smooth="yes"/>
      <point x="-726" y="-1064"/>
      <point x="-856" y="-832"/>
      <point x="-856" y="-660" type="curve" smooth="yes"/>
      <point x="-856" y="-492"/>
      <point x="-744" y="-406"/>
      <point x="-622" y="-406" type="curve" smooth="yes"/>
      <point x="-520" y="-406"/>
      <point x="-394" y="-462"/>
      <point x="-394" y="-626" type="curve" smooth="yes"/>
      <point x="-394" y="-790"/>
      <point x="-520" y="-856"/>
      <point x="-638" y="-856" type="curve" smooth="yes"/>
      <point x="-712" y="-856"/>
      <point x="-792" y="-808"/>
      <point x="-812" y="-746" type="curve"/>
      <point x="-792" y="-868"/>
      <point x="-672" y="-1040"/>
      <point x="-394" y="-1040" type="curve" smooth="yes"/>
      <point x="-108" y="-1040"/>
      <point x="98" y="-664"/>
      <point x="184" y="-164" type="curve" smooth="yes"/>
      <point x="594" y="2098" type="line" smooth="yes"/>
      <point x="684" y="2614"/>
      <point x="1036" y="3112"/>
      <point x="1650" y="3112" type="curve" smooth="yes"/>
      <point x="2064" y="3112"/>
      <point x="2196" y="2880"/>
      <point x="2196" y="2708" type="curve" smooth="yes"/>
      <point x="2196" y="2540"/>
      <point x="2084" y="2454"/>
      <point x="1962" y="2454" type="curve" smooth="yes"/>
      <point x="1860" y="2454"/>
      <point x="1732" y="2510"/>
      <point x="1732" y="2674" type="curve" smooth="yes"/>
      <point x="1732" y="2838"/>
      <point x="1860" y="2904"/>
      <point x="1978" y="2904" type="curve" smooth="yes"/>
      <point x="2052" y="2904"/>
      <point x="2130" y="2852"/>
    </contour>
  </outline>
</glyph>
<glyph name="four.alt" format="1">
  <advance width="2436"/>
  <outline>
    <contour>
      <point x="2130" y="2040" type="curve"/>
      <point x="1676" y="-4" type="line"/>
      <point x="1286" y="-4" type="line"/>
      <point x="1720" y="1958" type="line"/>
      <point x="1842" y="1958"/>
      <point x="2048" y="2000"/>
    </contour>
    <contour>
      <point x="2016" y="24" type="line"/>
      <point x="2016" y="0" type="line"/>
      <point x="930" y="0" type="line"/>
      <point x="930" y="24" type="line"/>
    </contour>
    <contour>
      <point x="106" y="812" type="curve"/>
      <point x="2232" y="812" type="line"/>
      <point x="2232" y="786" type="line"/>
      <point x="62" y="786" type="line"/>
      <point x="636" y="1606"/>
      <point x="1844" y="2458"/>
      <point x="1926" y="3072" type="curve"/>
      <point x="2326" y="3072" type="line"/>
      <point x="2248" y="2478"/>
      <point x="720" y="1606"/>
    </contour>
  </outline>
</glyph>
